<svg xmlns="http://www.w3.org/2000/svg" width="320" height="180" viewBox="0 0 320 180" role="img" aria-labelledby="title desc">
  <title id="title">Juicy watermelon</title>
  <desc id="desc">Preset artwork using the Juicy watermelon color palette.</desc>
  
  <defs>
    <linearGradient id="bg-main" x1="0" y1="0" x2="1" y2="1">
      <stop offset="0%" stop-color="#a5ff9d"/><stop offset="25%" stop-color="#ffc697"/><stop offset="50%" stop-color="#ff7c73"/><stop offset="75%" stop-color="#ffdbad"/><stop offset="100%" stop-color="#ffe7c6"/>
    </linearGradient>
    <radialGradient id="glow-main" cx="78%" cy="20%" r="70%">
      <stop offset="0%" stop-color="#ffb7b2" stop-opacity=".72"/>
      <stop offset="62%" stop-color="#ffc697" stop-opacity=".14"/>
      <stop offset="100%" stop-color="#a5ff9d" stop-opacity="0"/>
    </radialGradient>
    <filter id="soft-main" x="-40%" y="-40%" width="180%" height="180%">
      <feGaussianBlur stdDeviation="10"/>
    </filter>
  </defs>
  <rect width="320" height="180" rx="22" fill="url(#bg-main)"/>
  <rect width="320" height="180" rx="22" fill="url(#glow-main)"/>
  <rect x="10" y="10" width="300" height="160" rx="17" fill="none" stroke="#10141f" stroke-opacity=".18" stroke-width="2"/>
  
  <circle cx="161" cy="92" r="66" fill="#acffa5" opacity=".78"/>
  <circle cx="161" cy="92" r="47" fill="#ff7c73" opacity=".74"/>
  <path d="M98 95 A63 63 0 0 0 224 95 L207 132 C180 151 136 151 113 132 Z" fill="#ffe2bd" opacity=".84"/>
  <path d="M93 89 A68 68 0 0 1 229 89" fill="none" stroke="#dbc7aa" stroke-width="13" stroke-linecap="round" opacity=".75"/>
  <circle cx="139" cy="108" r="4" fill="#947358" opacity=".72"/>
  <circle cx="169" cy="117" r="4" fill="#947358" opacity=".72"/>
  <circle cx="191" cy="100" r="4" fill="#947358" opacity=".72"/>
</svg>
