<svg xmlns="http://www.w3.org/2000/svg" width="320" height="180" viewBox="0 0 320 180" role="img" aria-labelledby="title desc">
  <title id="title">Nutcracker</title>
  <desc id="desc">Preset artwork using the Nutcracker color palette.</desc>
  
  <defs>
    <linearGradient id="bg-main" x1="0" y1="0" x2="1" y2="1">
      <stop offset="0%" stop-color="#00beff"/><stop offset="25%" stop-color="#d0a43a"/><stop offset="50%" stop-color="#ff8800"/><stop offset="75%" stop-color="#0047ff"/><stop offset="100%" stop-color="#00cb87"/>
    </linearGradient>
    <radialGradient id="glow-main" cx="78%" cy="20%" r="70%">
      <stop offset="0%" stop-color="#ffbe73" stop-opacity=".72"/>
      <stop offset="62%" stop-color="#d0a43a" stop-opacity=".14"/>
      <stop offset="100%" stop-color="#00beff" stop-opacity="0"/>
    </radialGradient>
    <filter id="soft-main" x="-40%" y="-40%" width="180%" height="180%">
      <feGaussianBlur stdDeviation="10"/>
    </filter>
  </defs>
  <rect width="320" height="180" rx="22" fill="url(#bg-main)"/>
  <rect width="320" height="180" rx="22" fill="url(#glow-main)"/>
  <rect x="10" y="10" width="300" height="160" rx="17" fill="none" stroke="#f8fbff" stroke-opacity=".18" stroke-width="2"/>
  
  <path d="M160 30 L98 132 H222 Z" fill="#a6832e" opacity=".8"/>
  <path d="M160 58 L83 154 H237 Z" fill="#e07800" opacity=".72"/>
  <rect x="147" y="139" width="26" height="28" rx="4" fill="#007299" opacity=".7"/>
  <path d="M160 31 L166 45 L181 45 L169 54 L174 69 L160 60 L146 69 L151 54 L139 45 L154 45 Z" fill="#5786ff"/>
  <circle cx="137" cy="96" r="5" fill="#00cb87"/>
  <circle cx="182" cy="111" r="5" fill="#00beff"/>
  <circle cx="160" cy="128" r="5" fill="#ffb35c"/>
  <path d="M58 45 H88 M232 52 H264 M48 126 H83 M237 139 H286" stroke="#fff" stroke-width="4" stroke-linecap="round" opacity=".52"/>
</svg>
