<svg xmlns="http://www.w3.org/2000/svg" width="320" height="180" viewBox="0 0 320 180" role="img" aria-labelledby="title desc">
  <title id="title">Starlight</title>
  <desc id="desc">Preset artwork using the Starlight color palette.</desc>
  
  <defs>
    <linearGradient id="bg-main" x1="0" y1="0" x2="1" y2="1">
      <stop offset="0%" stop-color="#ba7757"/><stop offset="25%" stop-color="#c362c7"/><stop offset="50%" stop-color="#9158ff"/><stop offset="75%" stop-color="#c36c91"/><stop offset="100%" stop-color="#c1716d"/>
    </linearGradient>
    <radialGradient id="glow-main" cx="78%" cy="20%" r="70%">
      <stop offset="0%" stop-color="#c3a3ff" stop-opacity=".72"/>
      <stop offset="62%" stop-color="#c362c7" stop-opacity=".14"/>
      <stop offset="100%" stop-color="#ba7757" stop-opacity="0"/>
    </radialGradient>
    <filter id="soft-main" x="-40%" y="-40%" width="180%" height="180%">
      <feGaussianBlur stdDeviation="10"/>
    </filter>
  </defs>
  <rect width="320" height="180" rx="22" fill="url(#bg-main)"/>
  <rect width="320" height="180" rx="22" fill="url(#glow-main)"/>
  <rect x="10" y="10" width="300" height="160" rx="17" fill="none" stroke="#f8fbff" stroke-opacity=".18" stroke-width="2"/>
  
  <circle cx="22" cy="18" r="1" fill="#fff" opacity="0.35"/><circle cx="69" cy="49" r="1.6" fill="#fff" opacity="0.44999999999999996"/><circle cx="116" cy="80" r="2.2" fill="#fff" opacity="0.55"/><circle cx="163" cy="111" r="1" fill="#fff" opacity="0.65"/><circle cx="210" cy="142" r="1.6" fill="#fff" opacity="0.75"/><circle cx="257" cy="39" r="2.2" fill="#fff" opacity="0.35"/><circle cx="28" cy="70" r="1" fill="#fff" opacity="0.44999999999999996"/><circle cx="75" cy="101" r="1.6" fill="#fff" opacity="0.55"/><circle cx="122" cy="132" r="2.2" fill="#fff" opacity="0.65"/><circle cx="169" cy="29" r="1" fill="#fff" opacity="0.75"/><circle cx="216" cy="60" r="1.6" fill="#fff" opacity="0.35"/><circle cx="263" cy="91" r="2.2" fill="#fff" opacity="0.44999999999999996"/><circle cx="34" cy="122" r="1" fill="#fff" opacity="0.55"/><circle cx="81" cy="19" r="1.6" fill="#fff" opacity="0.65"/><circle cx="128" cy="50" r="2.2" fill="#fff" opacity="0.75"/><circle cx="175" cy="81" r="1" fill="#fff" opacity="0.35"/><circle cx="222" cy="112" r="1.6" fill="#fff" opacity="0.44999999999999996"/><circle cx="269" cy="143" r="2.2" fill="#fff" opacity="0.55"/><circle cx="40" cy="40" r="1" fill="#fff" opacity="0.65"/><circle cx="87" cy="71" r="1.6" fill="#fff" opacity="0.75"/><circle cx="134" cy="102" r="2.2" fill="#fff" opacity="0.35"/><circle cx="181" cy="133" r="1" fill="#fff" opacity="0.44999999999999996"/><circle cx="228" cy="30" r="1.6" fill="#fff" opacity="0.55"/><circle cx="275" cy="61" r="2.2" fill="#fff" opacity="0.65"/><circle cx="46" cy="92" r="1" fill="#fff" opacity="0.75"/><circle cx="93" cy="123" r="1.6" fill="#fff" opacity="0.35"/><circle cx="140" cy="20" r="2.2" fill="#fff" opacity="0.44999999999999996"/><circle cx="187" cy="51" r="1" fill="#fff" opacity="0.55"/><circle cx="234" cy="82" r="1.6" fill="#fff" opacity="0.65"/><circle cx="281" cy="113" r="2.2" fill="#fff" opacity="0.75"/>
  <circle cx="160" cy="92" r="54" fill="#904993" opacity=".82"/>
  <circle cx="181" cy="75" r="48" fill="#c18568" opacity=".44"/>
  <path d="M58 118 C109 88 197 86 263 117" fill="none" stroke="#d495b0" stroke-width="9" stroke-linecap="round" opacity=".65"/>
  <path d="M69 126 C130 150 199 146 252 121" fill="none" stroke="#9158ff" stroke-width="3" stroke-linecap="round" opacity=".72"/>
</svg>
